<svg xmlns="http://www.w3.org/2000/svg" xmlns:xlink="http://www.w3.org/1999/xlink" version="1.1" width="256" height="256" viewBox="0 0 256 256" xml:space="preserve">

<defs>
</defs>
<g style="stroke: none; stroke-width: 0; stroke-dasharray: none; stroke-linecap: butt; stroke-linejoin: miter; stroke-miterlimit: 10; fill: none; fill-rule: nonzero; opacity: 1;" transform="translate(1.4065934065934016 1.4065934065934016) scale(2.81 2.81)" >
	<path d="M 52.697 11.526 V 31.79 c 0 1.391 1.128 2.519 2.519 2.519 h 5.523 v 6.791 l 7.702 -6.791 h 18.04 c 1.391 0 2.519 -1.128 2.519 -2.519 V 11.526 c 0 -1.391 -1.128 -2.519 -2.519 -2.519 H 55.216 C 53.825 9.007 52.697 10.135 52.697 11.526 z" style="stroke: none; stroke-width: 1; stroke-dasharray: none; stroke-linecap: butt; stroke-linejoin: miter; stroke-miterlimit: 10; fill: rgb(254,109,153); fill-rule: nonzero; opacity: 1;" transform=" matrix(1 0 0 1 0 0) " stroke-linecap="round" />
	<path d="M 47.804 80.993 H 14.302 c -3.857 0 -6.983 -3.127 -6.983 -6.983 V 49.916 c 0 -3.857 3.127 -6.983 6.983 -6.983 h 33.502 c 3.857 0 6.983 3.127 6.983 6.983 v 24.094 C 54.787 77.866 51.66 80.993 47.804 80.993 z" style="stroke: none; stroke-width: 1; stroke-dasharray: none; stroke-linecap: butt; stroke-linejoin: miter; stroke-miterlimit: 10; fill: rgb(109,201,247); fill-rule: nonzero; opacity: 1;" transform=" matrix(1 0 0 1 0 0) " stroke-linecap="round" />
	<rect x="54.79" y="55.76" rx="0" ry="0" width="6.32" height="12.03" style="stroke: none; stroke-width: 1; stroke-dasharray: none; stroke-linecap: butt; stroke-linejoin: miter; stroke-miterlimit: 10; fill: rgb(93,169,207); fill-rule: nonzero; opacity: 1;" transform=" matrix(1 0 0 1 0 0) "/>
	<rect x="1" y="55.76" rx="0" ry="0" width="6.32" height="12.03" style="stroke: none; stroke-width: 1; stroke-dasharray: none; stroke-linecap: butt; stroke-linejoin: miter; stroke-miterlimit: 10; fill: rgb(93,169,207); fill-rule: nonzero; opacity: 1;" transform=" matrix(1 0 0 1 0 0) "/>
	<path d="M 60.739 42.101 c -0.14 0 -0.279 -0.029 -0.411 -0.088 c -0.358 -0.162 -0.589 -0.519 -0.589 -0.912 v -5.792 h -4.522 c -1.94 0 -3.52 -1.579 -3.52 -3.519 V 11.526 c 0 -1.94 1.579 -3.519 3.52 -3.519 h 31.265 c 1.94 0 3.519 1.579 3.519 3.519 v 20.264 c 0 1.94 -1.578 3.519 -3.519 3.519 H 68.819 L 61.4 41.851 C 61.214 42.015 60.979 42.101 60.739 42.101 z M 55.217 10.007 c -0.838 0 -1.52 0.682 -1.52 1.519 v 20.264 c 0 0.837 0.682 1.519 1.52 1.519 h 5.522 c 0.553 0 1 0.448 1 1 v 4.577 l 6.041 -5.327 c 0.183 -0.161 0.418 -0.25 0.661 -0.25 h 18.04 c 0.837 0 1.519 -0.681 1.519 -1.519 V 11.526 c 0 -0.837 -0.682 -1.519 -1.519 -1.519 H 55.217 z" style="stroke: none; stroke-width: 1; stroke-dasharray: none; stroke-linecap: butt; stroke-linejoin: miter; stroke-miterlimit: 10; fill: rgb(0,0,0); fill-rule: nonzero; opacity: 1;" transform=" matrix(1 0 0 1 0 0) " stroke-linecap="round" />
	<path d="M 47.804 81.992 H 14.302 c -4.402 0 -7.983 -3.581 -7.983 -7.983 V 49.916 c 0 -4.402 3.582 -7.983 7.983 -7.983 h 33.501 c 4.402 0 7.983 3.582 7.983 7.983 v 24.093 C 55.787 78.411 52.206 81.992 47.804 81.992 z M 14.302 43.933 c -3.299 0 -5.983 2.685 -5.983 5.983 v 24.093 c 0 3.299 2.684 5.983 5.983 5.983 h 33.501 c 3.299 0 5.983 -2.685 5.983 -5.983 V 49.916 c 0 -3.299 -2.685 -5.983 -5.983 -5.983 H 14.302 z" style="stroke: none; stroke-width: 1; stroke-dasharray: none; stroke-linecap: butt; stroke-linejoin: miter; stroke-miterlimit: 10; fill: rgb(0,0,0); fill-rule: nonzero; opacity: 1;" transform=" matrix(1 0 0 1 0 0) " stroke-linecap="round" />
	<path d="M 22.972 59.877 c -0.552 0 -1 -0.447 -1 -1 v -4.852 c 0 -0.553 0.448 -1 1 -1 s 1 0.447 1 1 v 4.852 C 23.972 59.43 23.524 59.877 22.972 59.877 z" style="stroke: none; stroke-width: 1; stroke-dasharray: none; stroke-linecap: butt; stroke-linejoin: miter; stroke-miterlimit: 10; fill: rgb(0,0,0); fill-rule: nonzero; opacity: 1;" transform=" matrix(1 0 0 1 0 0) " stroke-linecap="round" />
	<path d="M 39.133 59.877 c -0.552 0 -1 -0.447 -1 -1 v -4.852 c 0 -0.553 0.448 -1 1 -1 s 1 0.447 1 1 v 4.852 C 40.133 59.43 39.686 59.877 39.133 59.877 z" style="stroke: none; stroke-width: 1; stroke-dasharray: none; stroke-linecap: butt; stroke-linejoin: miter; stroke-miterlimit: 10; fill: rgb(0,0,0); fill-rule: nonzero; opacity: 1;" transform=" matrix(1 0 0 1 0 0) " stroke-linecap="round" />
	<path d="M 31.053 71.838 c -2.9 0 -5.801 -1.083 -8.681 -3.247 c -0.442 -0.332 -0.531 -0.959 -0.199 -1.4 c 0.332 -0.442 0.959 -0.529 1.4 -0.199 c 5.035 3.784 9.928 3.784 14.959 0 c 0.443 -0.329 1.069 -0.242 1.4 0.199 c 0.332 0.441 0.243 1.068 -0.198 1.4 C 36.854 70.755 33.954 71.838 31.053 71.838 z" style="stroke: none; stroke-width: 1; stroke-dasharray: none; stroke-linecap: butt; stroke-linejoin: miter; stroke-miterlimit: 10; fill: rgb(0,0,0); fill-rule: nonzero; opacity: 1;" transform=" matrix(1 0 0 1 0 0) " stroke-linecap="round" />
	<path d="M 31.053 43.933 c -0.552 0 -1 -0.448 -1 -1 v -9.564 c 0 -0.552 0.448 -1 1 -1 s 1 0.448 1 1 v 9.564 C 32.053 43.485 31.605 43.933 31.053 43.933 z" style="stroke: none; stroke-width: 1; stroke-dasharray: none; stroke-linecap: butt; stroke-linejoin: miter; stroke-miterlimit: 10; fill: rgb(0,0,0); fill-rule: nonzero; opacity: 1;" transform=" matrix(1 0 0 1 0 0) " stroke-linecap="round" />
	<path d="M 61.105 68.791 h -6.318 c -0.553 0 -1 -0.447 -1 -1 V 55.758 c 0 -0.553 0.447 -1 1 -1 h 6.318 c 0.553 0 1 0.447 1 1 v 12.033 C 62.105 68.344 61.658 68.791 61.105 68.791 z M 55.787 66.791 h 4.318 V 56.758 h -4.318 V 66.791 z" style="stroke: none; stroke-width: 1; stroke-dasharray: none; stroke-linecap: butt; stroke-linejoin: miter; stroke-miterlimit: 10; fill: rgb(0,0,0); fill-rule: nonzero; opacity: 1;" transform=" matrix(1 0 0 1 0 0) " stroke-linecap="round" />
	<path d="M 7.319 68.791 H 1 c -0.552 0 -1 -0.447 -1 -1 V 55.758 c 0 -0.553 0.448 -1 1 -1 h 6.319 c 0.552 0 1 0.447 1 1 v 12.033 C 8.319 68.344 7.871 68.791 7.319 68.791 z M 2 66.791 h 4.319 V 56.758 H 2 V 66.791 z" style="stroke: none; stroke-width: 1; stroke-dasharray: none; stroke-linecap: butt; stroke-linejoin: miter; stroke-miterlimit: 10; fill: rgb(0,0,0); fill-rule: nonzero; opacity: 1;" transform=" matrix(1 0 0 1 0 0) " stroke-linecap="round" />
	<path d="M 63.558 22.893 h -3.055 c -0.553 0 -1 -0.448 -1 -1 s 0.447 -1 1 -1 h 3.055 c 0.553 0 1 0.448 1 1 S 64.11 22.893 63.558 22.893 z" style="stroke: none; stroke-width: 1; stroke-dasharray: none; stroke-linecap: butt; stroke-linejoin: miter; stroke-miterlimit: 10; fill: rgb(0,0,0); fill-rule: nonzero; opacity: 1;" transform=" matrix(1 0 0 1 0 0) " stroke-linecap="round" />
	<path d="M 72.65 22.893 h -3.055 c -0.553 0 -1 -0.448 -1 -1 s 0.447 -1 1 -1 h 3.055 c 0.553 0 1 0.448 1 1 S 73.203 22.893 72.65 22.893 z" style="stroke: none; stroke-width: 1; stroke-dasharray: none; stroke-linecap: butt; stroke-linejoin: miter; stroke-miterlimit: 10; fill: rgb(0,0,0); fill-rule: nonzero; opacity: 1;" transform=" matrix(1 0 0 1 0 0) " stroke-linecap="round" />
	<path d="M 81.742 22.893 h -3.055 c -0.553 0 -1 -0.448 -1 -1 s 0.447 -1 1 -1 h 3.055 c 0.553 0 1 0.448 1 1 S 82.295 22.893 81.742 22.893 z" style="stroke: none; stroke-width: 1; stroke-dasharray: none; stroke-linecap: butt; stroke-linejoin: miter; stroke-miterlimit: 10; fill: rgb(0,0,0); fill-rule: nonzero; opacity: 1;" transform=" matrix(1 0 0 1 0 0) " stroke-linecap="round" />
</g>
</svg>